<?xml version="1.0" encoding="utf-8" standalone="no"?>
<!DOCTYPE svg PUBLIC "-//W3C//DTD SVG 1.1//EN"
  "http://www.w3.org/Graphics/SVG/1.1/DTD/svg11.dtd">
<svg xmlns:xlink="http://www.w3.org/1999/xlink" width="708.661417pt" height="113.385827pt" viewBox="0 0 708.661417 113.385827" xmlns="http://www.w3.org/2000/svg" version="1.1">
 <metadata>
  <rdf:RDF xmlns:dc="http://purl.org/dc/elements/1.1/" xmlns:cc="http://creativecommons.org/ns#" xmlns:rdf="http://www.w3.org/1999/02/22-rdf-syntax-ns#">
   <cc:Work>
    <dc:type rdf:resource="http://purl.org/dc/dcmitype/StillImage"/>
    <dc:date>2023-04-30T16:25:03.088101</dc:date>
    <dc:format>image/svg+xml</dc:format>
    <dc:creator>
     <cc:Agent>
      <dc:title>Matplotlib v3.6.2, https://matplotlib.org/</dc:title>
     </cc:Agent>
    </dc:creator>
   </cc:Work>
  </rdf:RDF>
 </metadata>
 <defs>
  <style type="text/css">*{stroke-linejoin: round; stroke-linecap: butt}</style>
 </defs>
 <g id="figure_1">
  <g id="patch_1">
   <path d="M 0 113.385827 
L 708.661417 113.385827 
L 708.661417 0 
L 0 0 
z
" style="fill: #ffffff"/>
  </g>
  <g id="axes_1">
   <g id="patch_2">
    <path d="M 88.582677 100.913386 
L 637.795276 100.913386 
L 637.795276 13.606299 
L 88.582677 13.606299 
z
" style="fill: #ffffff"/>
   </g>
   <g id="matplotlib.axis_1">
    <g id="xtick_1">
     <g id="line2d_1">
      <defs>
       <path id="ma6ab75ca0b" d="M 0 0 
L 0 3.5 
" style="stroke: #000000; stroke-width: 0.8"/>
      </defs>
      <g>
       <use xlink:href="#ma6ab75ca0b" x="113.546886" y="100.913386" style="stroke: #000000; stroke-width: 0.8"/>
      </g>
     </g>
     <g id="text_1">
      <!-- 0 -->
      <g transform="translate(110.766417 115.086823) scale(0.1 -0.1)">
       <defs>
        <path id="Helvetica-30" d="M 1731 4475 
Q 2600 4475 2988 3759 
Q 3288 3206 3288 2244 
Q 3288 1331 3016 734 
Q 2622 -122 1728 -122 
Q 922 -122 528 578 
Q 200 1163 200 2147 
Q 200 2909 397 3456 
Q 766 4475 1731 4475 
z
M 1725 391 
Q 2163 391 2422 778 
Q 2681 1166 2681 2222 
Q 2681 2984 2493 3476 
Q 2306 3969 1766 3969 
Q 1269 3969 1039 3501 
Q 809 3034 809 2125 
Q 809 1441 956 1025 
Q 1181 391 1725 391 
z
" transform="scale(0.015625)"/>
       </defs>
       <use xlink:href="#Helvetica-30"/>
      </g>
     </g>
    </g>
    <g id="xtick_2">
     <g id="line2d_2">
      <g>
       <use xlink:href="#ma6ab75ca0b" x="193.050737" y="100.913386" style="stroke: #000000; stroke-width: 0.8"/>
      </g>
     </g>
     <g id="text_2">
      <!-- 10 -->
      <g transform="translate(187.489799 115.086823) scale(0.1 -0.1)">
       <defs>
        <path id="Helvetica-31" d="M 613 3169 
L 613 3600 
Q 1222 3659 1462 3798 
Q 1703 3938 1822 4456 
L 2266 4456 
L 2266 0 
L 1666 0 
L 1666 3169 
L 613 3169 
z
" transform="scale(0.015625)"/>
       </defs>
       <use xlink:href="#Helvetica-31"/>
       <use xlink:href="#Helvetica-30" x="55.615234"/>
      </g>
     </g>
    </g>
    <g id="xtick_3">
     <g id="line2d_3">
      <g>
       <use xlink:href="#ma6ab75ca0b" x="272.554587" y="100.913386" style="stroke: #000000; stroke-width: 0.8"/>
      </g>
     </g>
     <g id="text_3">
      <!-- 20 -->
      <g transform="translate(266.993649 115.086823) scale(0.1 -0.1)">
       <defs>
        <path id="Helvetica-32" d="M 200 0 
Q 231 578 439 1006 
Q 647 1434 1250 1784 
L 1850 2131 
Q 2253 2366 2416 2531 
Q 2672 2791 2672 3125 
Q 2672 3516 2437 3745 
Q 2203 3975 1813 3975 
Q 1234 3975 1013 3538 
Q 894 3303 881 2888 
L 309 2888 
Q 319 3472 525 3841 
Q 891 4491 1816 4491 
Q 2584 4491 2939 4075 
Q 3294 3659 3294 3150 
Q 3294 2613 2916 2231 
Q 2697 2009 2131 1694 
L 1703 1456 
Q 1397 1288 1222 1134 
Q 909 863 828 531 
L 3272 531 
L 3272 0 
L 200 0 
z
" transform="scale(0.015625)"/>
       </defs>
       <use xlink:href="#Helvetica-32"/>
       <use xlink:href="#Helvetica-30" x="55.615234"/>
      </g>
     </g>
    </g>
    <g id="xtick_4">
     <g id="line2d_4">
      <g>
       <use xlink:href="#ma6ab75ca0b" x="352.058437" y="100.913386" style="stroke: #000000; stroke-width: 0.8"/>
      </g>
     </g>
     <g id="text_4">
      <!-- 30 -->
      <g transform="translate(346.4975 115.086823) scale(0.1 -0.1)">
       <defs>
        <path id="Helvetica-33" d="M 1663 -122 
Q 869 -122 511 314 
Q 153 750 153 1375 
L 741 1375 
Q 778 941 903 744 
Q 1122 391 1694 391 
Q 2138 391 2406 628 
Q 2675 866 2675 1241 
Q 2675 1703 2392 1887 
Q 2109 2072 1606 2072 
Q 1550 2072 1492 2070 
Q 1434 2069 1375 2066 
L 1375 2563 
Q 1463 2553 1522 2550 
Q 1581 2547 1650 2547 
Q 1966 2547 2169 2647 
Q 2525 2822 2525 3272 
Q 2525 3606 2287 3787 
Q 2050 3969 1734 3969 
Q 1172 3969 956 3594 
Q 838 3388 822 3006 
L 266 3006 
Q 266 3506 466 3856 
Q 809 4481 1675 4481 
Q 2359 4481 2734 4176 
Q 3109 3872 3109 3294 
Q 3109 2881 2888 2625 
Q 2750 2466 2531 2375 
Q 2884 2278 3082 2001 
Q 3281 1725 3281 1325 
Q 3281 684 2859 281 
Q 2438 -122 1663 -122 
z
" transform="scale(0.015625)"/>
       </defs>
       <use xlink:href="#Helvetica-33"/>
       <use xlink:href="#Helvetica-30" x="55.615234"/>
      </g>
     </g>
    </g>
    <g id="xtick_5">
     <g id="line2d_5">
      <g>
       <use xlink:href="#ma6ab75ca0b" x="431.562288" y="100.913386" style="stroke: #000000; stroke-width: 0.8"/>
      </g>
     </g>
     <g id="text_5">
      <!-- 40 -->
      <g transform="translate(426.00135 115.086823) scale(0.1 -0.1)">
       <defs>
        <path id="Helvetica-34" d="M 2116 1584 
L 2116 3613 
L 681 1584 
L 2116 1584 
z
M 2125 0 
L 2125 1094 
L 163 1094 
L 163 1644 
L 2213 4488 
L 2688 4488 
L 2688 1584 
L 3347 1584 
L 3347 1094 
L 2688 1094 
L 2688 0 
L 2125 0 
z
" transform="scale(0.015625)"/>
       </defs>
       <use xlink:href="#Helvetica-34"/>
       <use xlink:href="#Helvetica-30" x="55.615234"/>
      </g>
     </g>
    </g>
    <g id="xtick_6">
     <g id="line2d_6">
      <g>
       <use xlink:href="#ma6ab75ca0b" x="511.066138" y="100.913386" style="stroke: #000000; stroke-width: 0.8"/>
      </g>
     </g>
     <g id="text_6">
      <!-- 50 -->
      <g transform="translate(505.505201 115.086823) scale(0.1 -0.1)">
       <defs>
        <path id="Helvetica-35" d="M 791 1141 
Q 847 659 1238 475 
Q 1438 381 1700 381 
Q 2200 381 2440 700 
Q 2681 1019 2681 1406 
Q 2681 1875 2395 2131 
Q 2109 2388 1709 2388 
Q 1419 2388 1211 2275 
Q 1003 2163 856 1963 
L 369 1991 
L 709 4400 
L 3034 4400 
L 3034 3856 
L 1131 3856 
L 941 2613 
Q 1097 2731 1238 2791 
Q 1488 2894 1816 2894 
Q 2431 2894 2859 2497 
Q 3288 2100 3288 1491 
Q 3288 856 2895 371 
Q 2503 -113 1644 -113 
Q 1097 -113 676 195 
Q 256 503 206 1141 
L 791 1141 
z
" transform="scale(0.015625)"/>
       </defs>
       <use xlink:href="#Helvetica-35"/>
       <use xlink:href="#Helvetica-30" x="55.615234"/>
      </g>
     </g>
    </g>
    <g id="xtick_7">
     <g id="line2d_7">
      <g>
       <use xlink:href="#ma6ab75ca0b" x="590.569988" y="100.913386" style="stroke: #000000; stroke-width: 0.8"/>
      </g>
     </g>
     <g id="text_7">
      <!-- 60 -->
      <g transform="translate(585.009051 115.086823) scale(0.1 -0.1)">
       <defs>
        <path id="Helvetica-36" d="M 1872 4494 
Q 2622 4494 2917 4105 
Q 3213 3716 3213 3303 
L 2656 3303 
Q 2606 3569 2497 3719 
Q 2294 4000 1881 4000 
Q 1409 4000 1131 3564 
Q 853 3128 822 2316 
Q 1016 2600 1309 2741 
Q 1578 2866 1909 2866 
Q 2472 2866 2890 2506 
Q 3309 2147 3309 1434 
Q 3309 825 2912 354 
Q 2516 -116 1781 -116 
Q 1153 -116 697 361 
Q 241 838 241 1966 
Q 241 2800 444 3381 
Q 834 4494 1872 4494 
z
M 1831 384 
Q 2275 384 2495 682 
Q 2716 981 2716 1388 
Q 2716 1731 2519 2042 
Q 2322 2353 1803 2353 
Q 1441 2353 1167 2112 
Q 894 1872 894 1388 
Q 894 963 1142 673 
Q 1391 384 1831 384 
z
" transform="scale(0.015625)"/>
       </defs>
       <use xlink:href="#Helvetica-36"/>
       <use xlink:href="#Helvetica-30" x="55.615234"/>
      </g>
     </g>
    </g>
   </g>
   <g id="matplotlib.axis_2">
    <g id="ytick_1">
     <g id="line2d_8">
      <defs>
       <path id="m9f208df269" d="M 0 0 
L -3.5 0 
" style="stroke: #000000; stroke-width: 0.8"/>
      </defs>
      <g>
       <use xlink:href="#m9f208df269" x="88.582677" y="96.945271" style="stroke: #000000; stroke-width: 0.8"/>
      </g>
     </g>
     <g id="text_8">
      <!-- −1 -->
      <g transform="translate(70.181115 100.531989) scale(0.1 -0.1)">
       <defs>
        <path id="Helvetica-2212" d="M 3547 1894 
L 3547 1369 
L 288 1369 
L 288 1894 
L 3547 1894 
z
" transform="scale(0.015625)"/>
       </defs>
       <use xlink:href="#Helvetica-2212"/>
       <use xlink:href="#Helvetica-31" x="58.398438"/>
      </g>
     </g>
    </g>
    <g id="ytick_2">
     <g id="line2d_9">
      <g>
       <use xlink:href="#m9f208df269" x="88.582677" y="57.259913" style="stroke: #000000; stroke-width: 0.8"/>
      </g>
     </g>
     <g id="text_9">
      <!-- 0 -->
      <g transform="translate(76.02174 60.846631) scale(0.1 -0.1)">
       <use xlink:href="#Helvetica-30"/>
      </g>
     </g>
    </g>
    <g id="ytick_3">
     <g id="line2d_10">
      <g>
       <use xlink:href="#m9f208df269" x="88.582677" y="17.574555" style="stroke: #000000; stroke-width: 0.8"/>
      </g>
     </g>
     <g id="text_10">
      <!-- 1 -->
      <g transform="translate(76.02174 21.161274) scale(0.1 -0.1)">
       <use xlink:href="#Helvetica-31"/>
      </g>
     </g>
    </g>
   </g>
   <g id="line2d_11">
    <path d="M 113.546886 57.259913 
L 116.72704 41.805706 
L 118.317117 34.851874 
L 119.907194 28.79138 
L 121.497271 23.865836 
L 122.29231 21.89203 
L 123.087348 20.271608 
L 123.882387 19.020761 
L 124.677425 18.151988 
L 125.472464 17.673967 
L 126.267502 17.591477 
L 127.062541 17.90534 
L 127.857579 18.612421 
L 128.652618 19.705655 
L 129.447656 21.174119 
L 130.242695 23.00314 
L 131.832772 27.666334 
L 133.422849 33.509331 
L 135.012926 40.299189 
L 137.398041 51.659515 
L 142.168272 74.821495 
L 143.758349 81.541712 
L 145.348426 87.293891 
L 146.938503 91.848709 
L 147.733542 93.618286 
L 148.52858 95.024582 
L 149.323619 96.053545 
L 150.118657 96.694896 
L 150.913696 96.942225 
L 151.708734 96.793062 
L 152.503773 96.248896 
L 153.298811 95.315166 
L 154.09385 94.0012 
L 154.888888 92.320127 
L 155.683927 90.288744 
L 157.274004 85.259533 
L 158.864081 79.114066 
L 160.454158 72.097342 
L 163.634312 56.592647 
L 166.814466 41.193299 
L 168.404543 34.304324 
L 169.99462 28.330515 
L 171.584697 23.510031 
L 172.379735 21.59436 
L 173.174774 20.035048 
L 173.969812 18.847674 
L 174.764851 18.044103 
L 175.559889 17.632363 
L 176.354928 17.616568 
L 177.149966 17.996877 
L 177.945005 18.769488 
L 178.740043 19.926684 
L 179.535082 21.456901 
L 180.330121 23.344849 
L 181.920198 28.115101 
L 183.510275 34.047265 
L 185.100352 40.904843 
L 187.485467 52.320894 
L 191.46066 71.803768 
L 193.050737 78.849585 
L 194.640814 85.03469 
L 196.230891 90.112502 
L 197.025929 92.170954 
L 197.820968 93.880586 
L 198.616006 95.224316 
L 199.411045 96.188718 
L 200.206083 96.764157 
L 201.001122 96.944882 
L 201.79616 96.729088 
L 202.591199 96.118931 
L 203.386237 95.120508 
L 204.181276 93.743794 
L 204.976314 92.002546 
L 205.771353 89.91416 
L 207.36143 84.782704 
L 208.951507 78.554001 
L 210.541584 71.47637 
L 213.721738 55.92557 
L 216.901892 40.585433 
L 218.491969 33.763263 
L 220.082046 27.877831 
L 221.672123 23.163769 
L 222.467161 21.306775 
L 223.2622 19.809012 
L 224.057238 18.685447 
L 224.852277 17.947305 
L 225.647315 17.601962 
L 226.442354 17.652868 
L 227.237392 18.099514 
L 228.032431 18.937438 
L 228.827469 20.158268 
L 229.622508 21.749805 
L 230.417546 23.696147 
L 232.007623 28.572108 
L 233.5977 34.591761 
L 235.187777 41.515121 
L 237.572893 52.98367 
L 241.548085 72.422554 
L 243.138162 79.406417 
L 244.728239 85.507369 
L 246.318316 90.482184 
L 247.113355 92.483328 
L 247.908393 94.132532 
L 248.703432 95.413316 
L 249.49847 96.312885 
L 250.293509 96.822249 
L 251.088547 96.936319 
L 251.883586 96.653955 
L 252.678624 95.97798 
L 253.473663 94.915146 
L 254.268701 93.476074 
L 255.06374 91.675142 
L 255.858778 89.530344 
L 257.448855 84.298093 
L 259.038932 77.987916 
L 261.424048 67.061151 
L 267.784356 36.501861 
L 269.374433 30.195942 
L 270.96451 24.968979 
L 271.759548 22.827146 
L 272.554587 21.029354 
L 273.349625 19.593565 
L 274.144664 18.534126 
L 274.939702 17.861623 
L 275.734741 17.582774 
L 276.529779 17.700366 
L 277.324818 18.213223 
L 278.119856 19.116223 
L 278.914895 20.400341 
L 279.709933 22.052749 
L 280.504972 24.056934 
L 282.095049 29.037225 
L 283.685126 35.142665 
L 285.275203 42.12985 
L 288.455357 57.61118 
L 291.635511 73.037052 
L 293.225588 79.956987 
L 294.815665 85.972061 
L 296.405742 90.842472 
L 297.200781 92.785744 
L 297.995819 94.374053 
L 298.790858 95.59153 
L 299.585896 96.42601 
L 300.380935 96.869155 
L 301.175973 96.916538 
L 301.971012 96.567685 
L 302.76605 95.826082 
L 303.561089 94.699138 
L 304.356127 93.198114 
L 305.151166 91.338007 
L 306.741243 86.618291 
L 308.33132 80.728148 
L 309.921397 73.902401 
L 312.306512 62.512339 
L 316.281705 43.010553 
L 317.871782 35.93609 
L 319.461859 29.711739 
L 321.051936 24.585648 
L 321.846974 22.500259 
L 322.642013 20.762176 
L 323.437051 19.388767 
L 324.23209 18.393754 
L 325.027128 17.787079 
L 325.822167 17.574803 
L 326.617205 17.759048 
L 327.412244 18.337972 
L 328.207282 19.305792 
L 329.002321 20.652836 
L 329.797359 22.365647 
L 330.592398 24.427109 
L 332.182475 29.510322 
L 333.772552 35.699823 
L 335.362629 42.748858 
L 338.542783 58.27837 
L 341.722937 73.64709 
L 343.313014 80.50114 
L 344.903091 86.428636 
L 346.493168 91.193266 
L 347.288206 93.078115 
L 348.083245 94.605081 
L 348.878283 95.758906 
L 349.673322 96.528062 
L 350.46836 96.904863 
L 351.263399 96.885545 
L 352.058437 96.470301 
L 352.853476 95.66328 
L 353.648514 94.472545 
L 354.443553 92.909994 
L 355.238591 90.991238 
L 356.828668 86.16517 
L 358.418745 80.186741 
L 360.008822 73.294291 
L 362.393938 61.850201 
L 366.36913 42.389799 
L 367.959207 35.376348 
L 369.549284 29.235325 
L 371.139361 24.211555 
L 371.9344 22.183199 
L 372.729438 20.505318 
L 373.524477 19.194677 
L 374.319515 18.264371 
L 375.114554 17.723695 
L 375.909592 17.578053 
L 376.704631 17.828898 
L 377.499669 18.473725 
L 378.294708 19.506091 
L 379.089746 20.915681 
L 379.884785 22.68841 
L 380.679823 24.806566 
L 382.2699 29.991264 
L 383.859977 36.263077 
L 386.245093 47.152753 
L 392.605401 77.747964 
L 394.195478 84.091891 
L 395.785555 89.366112 
L 396.580594 91.534466 
L 397.375632 93.36036 
L 398.170671 94.82555 
L 398.965709 95.915397 
L 399.760748 96.619011 
L 400.555786 96.929362 
L 401.350825 96.843349 
L 402.145863 96.361832 
L 402.940902 95.489621 
L 403.73594 94.235431 
L 404.530979 92.611794 
L 405.326017 90.634933 
L 406.916094 85.703878 
L 408.506171 79.638852 
L 410.096248 72.681648 
L 412.481364 61.186765 
L 416.456556 41.773248 
L 418.046633 34.822792 
L 419.63671 28.766834 
L 421.226787 23.846805 
L 422.021826 21.876056 
L 422.816864 20.258851 
L 423.611903 19.011348 
L 424.406941 18.146012 
L 425.20198 17.67149 
L 425.997018 17.592521 
L 426.792057 17.909897 
L 427.587095 18.620444 
L 428.382134 19.717065 
L 429.177172 21.188801 
L 429.972211 23.020948 
L 431.562288 27.68983 
L 433.152365 33.537579 
L 434.742442 40.331062 
L 437.127557 51.694411 
L 441.897788 74.853096 
L 443.487865 81.569582 
L 445.077942 87.316918 
L 446.668019 91.865976 
L 447.463058 93.632398 
L 448.258096 95.035399 
L 449.053135 96.06096 
L 449.848173 96.698833 
L 450.643212 96.942646 
L 451.43825 96.789962 
L 452.233289 96.242307 
L 453.028327 95.305152 
L 453.823366 93.987863 
L 454.618404 92.303599 
L 455.413443 90.269191 
L 457.00352 85.234544 
L 458.593597 79.084636 
L 460.183674 72.064645 
L 463.363828 56.557405 
L 466.543982 41.161076 
L 468.134059 34.275581 
L 469.724136 28.306399 
L 471.314213 23.491502 
L 472.109251 21.578917 
L 472.90429 20.022845 
L 473.699328 18.838833 
L 474.494367 18.038712 
L 475.289405 17.630477 
L 476.084444 17.618205 
L 476.879482 18.002021 
L 477.674521 18.778088 
L 478.469559 19.938653 
L 479.264598 21.472119 
L 480.059636 23.363166 
L 481.649713 28.139035 
L 483.23979 34.075862 
L 484.829867 40.936964 
L 487.214983 52.355869 
L 491.190175 71.836557 
L 492.780252 78.879151 
L 494.37033 85.059855 
L 495.960407 90.132262 
L 496.755445 92.187701 
L 497.550484 93.894153 
L 498.345522 95.234568 
L 499.140561 96.195552 
L 499.935599 96.767505 
L 500.730638 96.94471 
L 501.525676 96.725399 
L 502.320715 96.111761 
L 503.115753 95.109928 
L 503.910792 93.729911 
L 504.70583 91.985497 
L 505.500869 89.894117 
L 507.090946 84.7573 
L 508.681023 78.524249 
L 510.2711 71.443457 
L 513.451254 55.890344 
L 516.631408 40.553455 
L 518.221485 33.734868 
L 519.811562 27.854149 
L 521.401639 23.145746 
L 522.196677 21.291866 
L 522.991716 19.797367 
L 523.786754 18.677181 
L 524.581793 17.942501 
L 525.376831 17.600668 
L 526.17187 17.655097 
L 526.966908 18.105244 
L 527.761947 18.946611 
L 528.556985 20.170792 
L 529.352024 21.765556 
L 530.147062 23.714967 
L 531.737139 28.596474 
L 533.327216 34.620701 
L 534.917293 41.547481 
L 537.302409 53.018714 
L 541.277601 72.45512 
L 542.867678 79.435656 
L 544.457755 85.532115 
L 546.047832 90.50145 
L 546.842871 92.499552 
L 547.637909 94.14555 
L 548.432948 95.423 
L 549.227986 96.319136 
L 550.023025 96.825006 
L 550.818063 96.935555 
L 551.613102 96.649677 
L 552.40814 95.97023 
L 553.203179 94.904002 
L 553.998217 93.461647 
L 554.793256 91.657577 
L 555.588294 89.509816 
L 557.178371 84.272282 
L 558.768448 77.957851 
L 561.153564 67.026992 
L 566.718833 39.950558 
L 568.30891 33.200806 
L 569.898987 27.410214 
L 571.489064 22.809635 
L 572.284103 21.014984 
L 573.079141 19.582481 
L 573.87418 18.526437 
L 574.669218 17.857406 
L 575.464257 17.582072 
L 576.259295 17.703186 
L 577.054334 18.219537 
L 577.849372 19.125967 
L 578.644411 20.413418 
L 579.439449 22.069028 
L 580.234488 24.076253 
L 581.824565 29.062016 
L 583.414642 35.17194 
L 585.004719 42.162441 
L 588.184873 57.646425 
L 591.365027 73.069388 
L 592.955104 79.985891 
L 594.545181 85.996382 
L 596.135258 90.86124 
L 596.930296 92.801439 
L 597.725335 94.386519 
L 598.520374 95.600642 
L 599.315412 96.431677 
L 600.110451 96.871321 
L 600.905489 96.915181 
L 601.700528 96.562819 
L 602.495566 95.817755 
L 603.290605 94.687434 
L 604.085643 93.183149 
L 604.880682 91.319931 
L 606.470759 86.594563 
L 608.060836 80.699715 
L 609.650913 73.870396 
L 612.036028 62.4774 
L 612.831067 58.523799 
L 612.831067 58.523799 
" clip-path="url(#p07f2804dbe)" style="fill: none; stroke: #000000; stroke-width: 1.5; stroke-linecap: square"/>
   </g>
   <g id="patch_3">
    <path d="M 88.582677 100.913386 
L 88.582677 13.606299 
" style="fill: none; stroke: #000000; stroke-linejoin: miter; stroke-linecap: square"/>
   </g>
   <g id="patch_4">
    <path d="M 637.795276 100.913386 
L 637.795276 13.606299 
" style="fill: none; stroke: #000000; stroke-linejoin: miter; stroke-linecap: square"/>
   </g>
   <g id="patch_5">
    <path d="M 88.582677 100.913386 
L 637.795276 100.913386 
" style="fill: none; stroke: #000000; stroke-linejoin: miter; stroke-linecap: square"/>
   </g>
   <g id="patch_6">
    <path d="M 88.582677 13.606299 
L 637.795276 13.606299 
" style="fill: none; stroke: #000000; stroke-linejoin: miter; stroke-linecap: square"/>
   </g>
  </g>
 </g>
 <defs>
  <clipPath id="p07f2804dbe">
   <rect x="88.582677" y="13.606299" width="549.212598" height="87.307087"/>
  </clipPath>
 </defs>
</svg>
