<?xml version="1.0" encoding="utf-8" standalone="no"?>
<!DOCTYPE svg PUBLIC "-//W3C//DTD SVG 1.1//EN"
  "http://www.w3.org/Graphics/SVG/1.1/DTD/svg11.dtd">
<svg xmlns:xlink="http://www.w3.org/1999/xlink" width="198.425197pt" height="85.03937pt" viewBox="0 0 198.425197 85.03937" xmlns="http://www.w3.org/2000/svg" version="1.1">
 <metadata>
  <rdf:RDF xmlns:dc="http://purl.org/dc/elements/1.1/" xmlns:cc="http://creativecommons.org/ns#" xmlns:rdf="http://www.w3.org/1999/02/22-rdf-syntax-ns#">
   <cc:Work>
    <dc:type rdf:resource="http://purl.org/dc/dcmitype/StillImage"/>
    <dc:date>2023-01-09T18:18:24.129242</dc:date>
    <dc:format>image/svg+xml</dc:format>
    <dc:creator>
     <cc:Agent>
      <dc:title>Matplotlib v3.5.1, https://matplotlib.org/</dc:title>
     </cc:Agent>
    </dc:creator>
   </cc:Work>
  </rdf:RDF>
 </metadata>
 <defs>
  <style type="text/css">*{stroke-linejoin: round; stroke-linecap: butt}</style>
 </defs>
 <g id="figure_1">
  <g id="patch_1">
   <path d="M 0 85.03937 
L 198.425197 85.03937 
L 198.425197 0 
L 0 0 
z
" style="fill: #ffffff"/>
  </g>
  <g id="axes_1">
   <g id="patch_2">
    <path d="M 0 85.03937 
L 198.425197 85.03937 
L 198.425197 0 
L 0 0 
z
" style="fill: #ffffff"/>
   </g>
   <g id="matplotlib.axis_1">
    <g id="xtick_1">
     <g id="line2d_1">
      <defs>
       <path id="m076d5a8720" d="M 0 0 
L 0 -3.937008 
" style="stroke: #000000"/>
      </defs>
      <g>
       <use xlink:href="#m076d5a8720" x="0" y="85.03937" style="stroke: #000000"/>
      </g>
     </g>
     <g id="line2d_2">
      <defs>
       <path id="m83451c6c3a" d="M 0 0 
L 0 3.937008 
" style="stroke: #000000"/>
      </defs>
      <g>
       <use xlink:href="#m83451c6c3a" x="0" y="0" style="stroke: #000000"/>
      </g>
     </g>
    </g>
    <g id="xtick_2">
     <g id="line2d_3">
      <g>
       <use xlink:href="#m076d5a8720" x="33.070866" y="85.03937" style="stroke: #000000"/>
      </g>
     </g>
     <g id="line2d_4">
      <g>
       <use xlink:href="#m83451c6c3a" x="33.070866" y="0" style="stroke: #000000"/>
      </g>
     </g>
    </g>
    <g id="xtick_3">
     <g id="line2d_5">
      <g>
       <use xlink:href="#m076d5a8720" x="66.141732" y="85.03937" style="stroke: #000000"/>
      </g>
     </g>
     <g id="line2d_6">
      <g>
       <use xlink:href="#m83451c6c3a" x="66.141732" y="0" style="stroke: #000000"/>
      </g>
     </g>
    </g>
    <g id="xtick_4">
     <g id="line2d_7">
      <g>
       <use xlink:href="#m076d5a8720" x="99.212598" y="85.03937" style="stroke: #000000"/>
      </g>
     </g>
     <g id="line2d_8">
      <g>
       <use xlink:href="#m83451c6c3a" x="99.212598" y="0" style="stroke: #000000"/>
      </g>
     </g>
    </g>
    <g id="xtick_5">
     <g id="line2d_9">
      <g>
       <use xlink:href="#m076d5a8720" x="132.283465" y="85.03937" style="stroke: #000000"/>
      </g>
     </g>
     <g id="line2d_10">
      <g>
       <use xlink:href="#m83451c6c3a" x="132.283465" y="0" style="stroke: #000000"/>
      </g>
     </g>
    </g>
    <g id="xtick_6">
     <g id="line2d_11">
      <g>
       <use xlink:href="#m076d5a8720" x="165.354331" y="85.03937" style="stroke: #000000"/>
      </g>
     </g>
     <g id="line2d_12">
      <g>
       <use xlink:href="#m83451c6c3a" x="165.354331" y="0" style="stroke: #000000"/>
      </g>
     </g>
    </g>
    <g id="xtick_7">
     <g id="line2d_13">
      <g>
       <use xlink:href="#m076d5a8720" x="198.425197" y="85.03937" style="stroke: #000000"/>
      </g>
     </g>
     <g id="line2d_14">
      <g>
       <use xlink:href="#m83451c6c3a" x="198.425197" y="0" style="stroke: #000000"/>
      </g>
     </g>
    </g>
    <g id="xtick_8">
     <g id="line2d_15">
      <defs>
       <path id="mf4d9d9a510" d="M 0 0 
L 0 -2.755906 
" style="stroke: #000000"/>
      </defs>
      <g>
       <use xlink:href="#mf4d9d9a510" x="16.535433" y="85.03937" style="stroke: #000000"/>
      </g>
     </g>
     <g id="line2d_16">
      <defs>
       <path id="mc6e4dec9b6" d="M 0 0 
L 0 2.755906 
" style="stroke: #000000"/>
      </defs>
      <g>
       <use xlink:href="#mc6e4dec9b6" x="16.535433" y="0" style="stroke: #000000"/>
      </g>
     </g>
    </g>
    <g id="xtick_9">
     <g id="line2d_17">
      <g>
       <use xlink:href="#mf4d9d9a510" x="49.606299" y="85.03937" style="stroke: #000000"/>
      </g>
     </g>
     <g id="line2d_18">
      <g>
       <use xlink:href="#mc6e4dec9b6" x="49.606299" y="0" style="stroke: #000000"/>
      </g>
     </g>
    </g>
    <g id="xtick_10">
     <g id="line2d_19">
      <g>
       <use xlink:href="#mf4d9d9a510" x="82.677165" y="85.03937" style="stroke: #000000"/>
      </g>
     </g>
     <g id="line2d_20">
      <g>
       <use xlink:href="#mc6e4dec9b6" x="82.677165" y="0" style="stroke: #000000"/>
      </g>
     </g>
    </g>
    <g id="xtick_11">
     <g id="line2d_21">
      <g>
       <use xlink:href="#mf4d9d9a510" x="115.748031" y="85.03937" style="stroke: #000000"/>
      </g>
     </g>
     <g id="line2d_22">
      <g>
       <use xlink:href="#mc6e4dec9b6" x="115.748031" y="0" style="stroke: #000000"/>
      </g>
     </g>
    </g>
    <g id="xtick_12">
     <g id="line2d_23">
      <g>
       <use xlink:href="#mf4d9d9a510" x="148.818898" y="85.03937" style="stroke: #000000"/>
      </g>
     </g>
     <g id="line2d_24">
      <g>
       <use xlink:href="#mc6e4dec9b6" x="148.818898" y="0" style="stroke: #000000"/>
      </g>
     </g>
    </g>
    <g id="xtick_13">
     <g id="line2d_25">
      <g>
       <use xlink:href="#mf4d9d9a510" x="181.889764" y="85.03937" style="stroke: #000000"/>
      </g>
     </g>
     <g id="line2d_26">
      <g>
       <use xlink:href="#mc6e4dec9b6" x="181.889764" y="0" style="stroke: #000000"/>
      </g>
     </g>
    </g>
    <g id="text_1">
     <text style="font: 8px 'Helvetica'; text-anchor: middle" x="99.212598" y="98.37187" transform="rotate(-0, 99.212598, 98.37187)">energy (MeV)</text>
    </g>
   </g>
   <g id="matplotlib.axis_2">
    <g id="ytick_1">
     <g id="line2d_27">
      <defs>
       <path id="m85b5c2df3b" d="M 0 0 
L 3.937008 0 
" style="stroke: #000000"/>
      </defs>
      <g>
       <use xlink:href="#m85b5c2df3b" x="0" y="85.03937" style="stroke: #000000"/>
      </g>
     </g>
     <g id="line2d_28">
      <defs>
       <path id="m574628ab1b" d="M 0 0 
L -3.937008 0 
" style="stroke: #000000"/>
      </defs>
      <g>
       <use xlink:href="#m574628ab1b" x="198.425197" y="85.03937" style="stroke: #000000"/>
      </g>
     </g>
    </g>
    <g id="ytick_2">
     <g id="line2d_29">
      <g>
       <use xlink:href="#m85b5c2df3b" x="0" y="69.577666" style="stroke: #000000"/>
      </g>
     </g>
     <g id="line2d_30">
      <g>
       <use xlink:href="#m574628ab1b" x="198.425197" y="69.577666" style="stroke: #000000"/>
      </g>
     </g>
    </g>
    <g id="ytick_3">
     <g id="line2d_31">
      <g>
       <use xlink:href="#m85b5c2df3b" x="0" y="54.115963" style="stroke: #000000"/>
      </g>
     </g>
     <g id="line2d_32">
      <g>
       <use xlink:href="#m574628ab1b" x="198.425197" y="54.115963" style="stroke: #000000"/>
      </g>
     </g>
    </g>
    <g id="ytick_4">
     <g id="line2d_33">
      <g>
       <use xlink:href="#m85b5c2df3b" x="0" y="38.654259" style="stroke: #000000"/>
      </g>
     </g>
     <g id="line2d_34">
      <g>
       <use xlink:href="#m574628ab1b" x="198.425197" y="38.654259" style="stroke: #000000"/>
      </g>
     </g>
    </g>
    <g id="ytick_5">
     <g id="line2d_35">
      <g>
       <use xlink:href="#m85b5c2df3b" x="0" y="23.192555" style="stroke: #000000"/>
      </g>
     </g>
     <g id="line2d_36">
      <g>
       <use xlink:href="#m574628ab1b" x="198.425197" y="23.192555" style="stroke: #000000"/>
      </g>
     </g>
    </g>
    <g id="ytick_6">
     <g id="line2d_37">
      <g>
       <use xlink:href="#m85b5c2df3b" x="0" y="7.730852" style="stroke: #000000"/>
      </g>
     </g>
     <g id="line2d_38">
      <g>
       <use xlink:href="#m574628ab1b" x="198.425197" y="7.730852" style="stroke: #000000"/>
      </g>
     </g>
    </g>
    <g id="ytick_7">
     <g id="line2d_39">
      <defs>
       <path id="mcb50a1ade8" d="M 0 0 
L 2.755906 0 
" style="stroke: #000000"/>
      </defs>
      <g>
       <use xlink:href="#mcb50a1ade8" x="0" y="77.308518" style="stroke: #000000"/>
      </g>
     </g>
     <g id="line2d_40">
      <defs>
       <path id="m6c9f1339c3" d="M 0 0 
L -2.755906 0 
" style="stroke: #000000"/>
      </defs>
      <g>
       <use xlink:href="#m6c9f1339c3" x="198.425197" y="77.308518" style="stroke: #000000"/>
      </g>
     </g>
    </g>
    <g id="ytick_8">
     <g id="line2d_41">
      <g>
       <use xlink:href="#mcb50a1ade8" x="0" y="61.846815" style="stroke: #000000"/>
      </g>
     </g>
     <g id="line2d_42">
      <g>
       <use xlink:href="#m6c9f1339c3" x="198.425197" y="61.846815" style="stroke: #000000"/>
      </g>
     </g>
    </g>
    <g id="ytick_9">
     <g id="line2d_43">
      <g>
       <use xlink:href="#mcb50a1ade8" x="0" y="46.385111" style="stroke: #000000"/>
      </g>
     </g>
     <g id="line2d_44">
      <g>
       <use xlink:href="#m6c9f1339c3" x="198.425197" y="46.385111" style="stroke: #000000"/>
      </g>
     </g>
    </g>
    <g id="ytick_10">
     <g id="line2d_45">
      <g>
       <use xlink:href="#mcb50a1ade8" x="0" y="30.923407" style="stroke: #000000"/>
      </g>
     </g>
     <g id="line2d_46">
      <g>
       <use xlink:href="#m6c9f1339c3" x="198.425197" y="30.923407" style="stroke: #000000"/>
      </g>
     </g>
    </g>
    <g id="ytick_11">
     <g id="line2d_47">
      <g>
       <use xlink:href="#mcb50a1ade8" x="0" y="15.461704" style="stroke: #000000"/>
      </g>
     </g>
     <g id="line2d_48">
      <g>
       <use xlink:href="#m6c9f1339c3" x="198.425197" y="15.461704" style="stroke: #000000"/>
      </g>
     </g>
    </g>
    <g id="ytick_12">
     <g id="line2d_49">
      <g>
       <use xlink:href="#mcb50a1ade8" x="0" y="-0" style="stroke: #000000"/>
      </g>
     </g>
     <g id="line2d_50">
      <g>
       <use xlink:href="#m6c9f1339c3" x="198.425197" y="-0" style="stroke: #000000"/>
      </g>
     </g>
    </g>
    <g id="text_2">
     <text style="font: 8px 'Helvetica'; text-anchor: middle" x="-9.215" y="42.519685" transform="rotate(-90, -9.215, 42.519685)">relative intensity</text>
    </g>
   </g>
   <g id="line2d_51">
    <defs>
     <path id="me6c1865b7f" d="M -1.5 1.5 
L 1.5 -1.5 
M -1.5 -1.5 
L 1.5 1.5 
" style="stroke: #000000"/>
    </defs>
    <g clip-path="url(#pb7ffb60773)">
     <use xlink:href="#me6c1865b7f" x="0.00061" y="84.369265" style="stroke: #000000"/>
     <use xlink:href="#me6c1865b7f" x="1.923276" y="18.03191" style="stroke: #000000"/>
     <use xlink:href="#me6c1865b7f" x="5.299233" y="19.377825" style="stroke: #000000"/>
     <use xlink:href="#me6c1865b7f" x="8.89065" y="26.08496" style="stroke: #000000"/>
     <use xlink:href="#me6c1865b7f" x="12.703632" y="34.802791" style="stroke: #000000"/>
     <use xlink:href="#me6c1865b7f" x="16.523327" y="39.835044" style="stroke: #000000"/>
     <use xlink:href="#me6c1865b7f" x="19.89196" y="45.201588" style="stroke: #000000"/>
     <use xlink:href="#me6c1865b7f" x="23.490091" y="48.223146" style="stroke: #000000"/>
     <use xlink:href="#me6c1865b7f" x="27.10043" y="44.543653" style="stroke: #000000"/>
     <use xlink:href="#me6c1865b7f" x="30.937826" y="39.859383" style="stroke: #000000"/>
     <use xlink:href="#me6c1865b7f" x="34.767288" y="39.530796" style="stroke: #000000"/>
     <use xlink:href="#me6c1865b7f" x="38.145686" y="39.536501" style="stroke: #000000"/>
     <use xlink:href="#me6c1865b7f" x="41.753583" y="37.197218" style="stroke: #000000"/>
     <use xlink:href="#me6c1865b7f" x="45.378571" y="25.476465" style="stroke: #000000"/>
     <use xlink:href="#me6c1865b7f" x="49.234279" y="10.74062" style="stroke: #000000"/>
     <use xlink:href="#me6c1865b7f" x="52.61817" y="7.730852" style="stroke: #000000"/>
     <use xlink:href="#me6c1865b7f" x="56.432983" y="15.443525" style="stroke: #000000"/>
     <use xlink:href="#me6c1865b7f" x="59.801615" y="20.81007" style="stroke: #000000"/>
     <use xlink:href="#me6c1865b7f" x="63.623142" y="24.837165" style="stroke: #000000"/>
     <use xlink:href="#me6c1865b7f" x="67.220053" y="28.528828" style="stroke: #000000"/>
     <use xlink:href="#me6c1865b7f" x="70.829781" y="25.184388" style="stroke: #000000"/>
     <use xlink:href="#me6c1865b7f" x="74.215504" y="21.169462" style="stroke: #000000"/>
     <use xlink:href="#me6c1865b7f" x="77.820349" y="20.505442" style="stroke: #000000"/>
     <use xlink:href="#me6c1865b7f" x="81.878089" y="18.501972" style="stroke: #000000"/>
     <use xlink:href="#me6c1865b7f" x="85.251604" y="21.188097" style="stroke: #000000"/>
     <use xlink:href="#me6c1865b7f" x="89.063976" y="30.24098" style="stroke: #000000"/>
     <use xlink:href="#me6c1865b7f" x="92.657224" y="35.942958" style="stroke: #000000"/>
     <use xlink:href="#me6c1865b7f" x="96.250473" y="41.644936" style="stroke: #000000"/>
     <use xlink:href="#me6c1865b7f" x="99.616663" y="48.35169" style="stroke: #000000"/>
     <use xlink:href="#me6c1865b7f" x="103.671352" y="48.023484" style="stroke: #000000"/>
     <use xlink:href="#me6c1865b7f" x="107.057074" y="44.008558" style="stroke: #000000"/>
     <use xlink:href="#me6c1865b7f" x="110.655816" y="46.695063" style="stroke: #000000"/>
     <use xlink:href="#me6c1865b7f" x="114.252727" y="50.386726" style="stroke: #000000"/>
     <use xlink:href="#me6c1865b7f" x="118.079747" y="51.398348" style="stroke: #000000"/>
     <use xlink:href="#me6c1865b7f" x="121.686423" y="49.729171" style="stroke: #000000"/>
     <use xlink:href="#me6c1865b7f" x="125.294321" y="47.389888" style="stroke: #000000"/>
     <use xlink:href="#me6c1865b7f" x="128.899777" y="46.390816" style="stroke: #000000"/>
     <use xlink:href="#me6c1865b7f" x="132.272681" y="49.411993" style="stroke: #000000"/>
     <use xlink:href="#me6c1865b7f" x="136.089325" y="56.119508" style="stroke: #000000"/>
     <use xlink:href="#me6c1865b7f" x="139.452464" y="64.501526" style="stroke: #000000"/>
     <use xlink:href="#me6c1865b7f" x="143.267887" y="71.879146" style="stroke: #000000"/>
     <use xlink:href="#me6c1865b7f" x="147.088804" y="76.241294" style="stroke: #000000"/>
     <use xlink:href="#me6c1865b7f" x="150.689987" y="77.587589" style="stroke: #000000"/>
     <use xlink:href="#me6c1865b7f" x="154.295443" y="76.588517" style="stroke: #000000"/>
     <use xlink:href="#me6c1865b7f" x="157.903951" y="73.914181" style="stroke: #000000"/>
     <use xlink:href="#me6c1865b7f" x="161.511237" y="71.909951" style="stroke: #000000"/>
     <use xlink:href="#me6c1865b7f" x="164.887805" y="72.920814" style="stroke: #000000"/>
     <use xlink:href="#me6c1865b7f" x="168.485936" y="75.942371" style="stroke: #000000"/>
     <use xlink:href="#me6c1865b7f" x="172.08834" y="76.618561" style="stroke: #000000"/>
     <use xlink:href="#me6c1865b7f" x="175.913529" y="78.635341" style="stroke: #000000"/>
     <use xlink:href="#me6c1865b7f" x="179.512271" y="81.321846" style="stroke: #000000"/>
     <use xlink:href="#me6c1865b7f" x="183.335629" y="84.343784" style="stroke: #000000"/>
     <use xlink:href="#me6c1865b7f" x="190.317652" y="84.355574" style="stroke: #000000"/>
    </g>
   </g>
   <g id="line2d_52">
    <path d="M 0 85.03937 
L 24.80315 85.03937 
L 24.80315 84.310044 
L 28.110236 84.310044 
L 28.110236 81.392742 
L 29.76378 81.392742 
L 29.76378 82.122068 
L 33.070866 82.122068 
L 33.070866 78.475439 
L 34.724409 78.475439 
L 34.724409 75.558137 
L 36.377953 75.558137 
L 36.377953 74.828811 
L 39.685039 74.828811 
L 39.685039 71.182183 
L 41.338583 71.182183 
L 41.338583 68.994206 
L 42.992126 68.994206 
L 42.992126 60.971624 
L 44.645669 60.971624 
L 44.645669 66.076903 
L 46.299213 66.076903 
L 46.299213 56.59567 
L 47.952756 56.59567 
L 47.952756 38.362529 
L 49.606299 38.362529 
L 49.606299 42.009157 
L 51.259843 42.009157 
L 51.259843 25.963993 
L 52.913386 25.963993 
L 52.913386 27.422644 
L 54.566929 27.422644 
L 54.566929 29.610621 
L 56.220472 29.610621 
L 56.220472 28.15197 
L 57.874016 28.15197 
L 57.874016 11.37748 
L 59.527559 11.37748 
L 59.527559 23.04669 
L 61.181102 23.04669 
L 61.181102 35.445226 
L 62.834646 35.445226 
L 62.834646 25.963993 
L 64.488189 25.963993 
L 64.488189 31.069272 
L 66.141732 31.069272 
L 66.141732 17.941411 
L 67.795276 17.941411 
L 67.795276 26.693319 
L 69.448819 26.693319 
L 69.448819 24.505342 
L 71.102362 24.505342 
L 71.102362 15.024108 
L 72.755906 15.024108 
L 72.755906 7.730852 
L 74.409449 7.730852 
L 74.409449 35.445226 
L 76.062992 35.445226 
L 76.062992 18.670736 
L 77.716535 18.670736 
L 77.716535 20.858713 
L 79.370079 20.858713 
L 79.370079 18.670736 
L 81.023622 18.670736 
L 81.023622 27.422644 
L 82.677165 27.422644 
L 82.677165 25.963993 
L 84.330709 25.963993 
L 84.330709 14.294783 
L 85.984252 14.294783 
L 85.984252 28.881295 
L 87.637795 28.881295 
L 87.637795 24.505342 
L 89.291339 24.505342 
L 89.291339 31.069272 
L 90.944882 31.069272 
L 90.944882 46.385111 
L 94.251969 46.385111 
L 94.251969 34.715901 
L 95.905512 34.715901 
L 95.905512 42.738483 
L 97.559055 42.738483 
L 97.559055 47.114437 
L 99.212598 47.114437 
L 99.212598 41.279831 
L 100.866142 41.279831 
L 100.866142 51.49039 
L 102.519685 51.49039 
L 102.519685 44.92646 
L 104.173228 44.92646 
L 104.173228 46.385111 
L 105.826772 46.385111 
L 105.826772 41.279831 
L 107.480315 41.279831 
L 107.480315 56.59567 
L 109.133858 56.59567 
L 109.133858 55.137019 
L 110.787402 55.137019 
L 110.787402 51.49039 
L 112.440945 51.49039 
L 112.440945 57.324996 
L 114.094488 57.324996 
L 114.094488 54.407693 
L 115.748031 54.407693 
L 115.748031 47.114437 
L 117.401575 47.114437 
L 117.401575 59.512973 
L 119.055118 59.512973 
L 119.055118 52.219716 
L 120.708661 52.219716 
L 120.708661 60.971624 
L 122.362205 60.971624 
L 122.362205 57.324996 
L 124.015748 57.324996 
L 124.015748 56.59567 
L 125.669291 56.59567 
L 125.669291 54.407693 
L 127.322835 54.407693 
L 127.322835 60.971624 
L 128.976378 60.971624 
L 128.976378 58.783647 
L 130.629921 58.783647 
L 130.629921 65.347578 
L 132.283465 65.347578 
L 132.283465 69.723532 
L 133.937008 69.723532 
L 133.937008 63.159601 
L 135.590551 63.159601 
L 135.590551 63.888926 
L 137.244094 63.888926 
L 137.244094 74.099485 
L 138.897638 74.099485 
L 138.897638 70.452857 
L 140.551181 70.452857 
L 140.551181 73.37016 
L 142.204724 73.37016 
L 142.204724 72.640834 
L 143.858268 72.640834 
L 143.858268 71.911508 
L 145.511811 71.911508 
L 145.511811 74.099485 
L 147.165354 74.099485 
L 147.165354 72.640834 
L 148.818898 72.640834 
L 148.818898 74.828811 
L 150.472441 74.828811 
L 150.472441 79.204765 
L 152.125984 79.204765 
L 152.125984 78.475439 
L 155.433071 78.475439 
L 155.433071 77.016788 
L 157.086614 77.016788 
L 157.086614 70.452857 
L 158.740157 70.452857 
L 158.740157 74.099485 
L 160.393701 74.099485 
L 160.393701 79.934091 
L 163.700787 79.934091 
L 163.700787 79.204765 
L 165.354331 79.204765 
L 165.354331 82.122068 
L 167.007874 82.122068 
L 167.007874 77.016788 
L 168.661417 77.016788 
L 168.661417 81.392742 
L 170.314961 81.392742 
L 170.314961 82.122068 
L 173.622047 82.122068 
L 173.622047 84.310044 
L 175.275591 84.310044 
L 175.275591 81.392742 
L 176.929134 81.392742 
L 176.929134 82.122068 
L 178.582677 82.122068 
L 178.582677 83.580719 
L 181.889764 83.580719 
L 181.889764 84.310044 
L 183.543307 84.310044 
L 183.543307 85.03937 
L 185.19685 85.03937 
L 185.19685 83.580719 
L 188.503937 83.580719 
L 188.503937 82.122068 
L 190.15748 82.122068 
L 190.15748 85.03937 
L 191.811024 85.03937 
L 191.811024 83.580719 
L 195.11811 83.580719 
L 195.11811 85.03937 
L 196.771654 85.03937 
L 196.771654 84.310044 
L 198.425197 84.310044 
L 198.425197 85.03937 
L 198.425197 85.03937 
" clip-path="url(#pb7ffb60773)" style="fill: none; stroke: #ff0000; stroke-opacity: 0.8; stroke-linecap: square"/>
   </g>
   <g id="line2d_53">
    <path d="M 0.826772 85.03937 
L 2.480315 85.03937 
L 4.133858 85.03937 
L 5.787402 85.03937 
L 7.440945 85.03937 
L 9.094488 85.03937 
L 10.748031 85.03937 
L 12.401575 85.03937 
L 14.055118 85.03937 
L 15.708661 85.03937 
L 17.362205 85.03937 
L 19.015748 85.03937 
L 20.669291 85.03937 
L 22.322835 85.03937 
L 23.976378 84.754216 
L 25.629921 85.03937 
L 27.283465 85.03937 
L 28.937008 84.754216 
L 30.590551 85.03937 
L 32.244094 85.03937 
L 33.897638 84.754216 
L 35.551181 85.03937 
L 37.204724 84.183907 
L 38.858268 83.613598 
L 40.511811 82.187826 
L 42.165354 77.340202 
L 43.818898 71.35196 
L 45.472441 68.215262 
L 47.125984 66.78949 
L 48.779528 57.949705 
L 50.433071 55.098161 
L 52.086614 55.098161 
L 53.740157 49.965382 
L 55.393701 46.54353 
L 57.047244 47.398993 
L 58.700787 47.684148 
L 60.354331 43.406832 
L 62.007874 43.406832 
L 63.661417 42.266214 
L 65.314961 35.707664 
L 66.968504 30.004577 
L 68.622047 35.707664 
L 70.275591 35.137355 
L 71.929134 28.578805 
L 73.582677 31.145194 
L 75.23622 30.004577 
L 76.889764 18.028093 
L 78.543307 23.73118 
L 80.19685 23.446026 
L 81.850394 15.461704 
L 83.503937 22.020254 
L 85.15748 30.289731 
L 86.811024 28.578805 
L 88.464567 32.85612 
L 90.11811 29.149113 
L 91.771654 34.852201 
L 93.425197 41.695906 
L 95.07874 36.848281 
L 96.732283 39.98498 
L 98.385827 45.117758 
L 100.03937 50.820846 
L 101.692913 43.977141 
L 103.346457 45.117758 
L 105 43.121678 
L 106.653543 45.688067 
L 108.307087 46.54353 
L 109.96063 39.98498 
L 111.614173 48.824765 
L 113.267717 48.824765 
L 114.92126 45.402913 
L 116.574803 42.836523 
L 118.228346 47.684148 
L 119.88189 47.398993 
L 121.535433 51.106 
L 123.188976 46.54353 
L 124.84252 51.106 
L 126.496063 49.965382 
L 128.149606 48.539611 
L 129.80315 49.395074 
L 131.456693 50.820846 
L 133.110236 52.531772 
L 134.76378 51.676309 
L 136.417323 58.805168 
L 138.070866 60.801249 
L 139.724409 66.78949 
L 141.377953 70.211343 
L 143.031496 72.207423 
L 144.685039 72.777732 
L 146.338583 76.484739 
L 147.992126 76.484739 
L 149.645669 77.625356 
L 151.299213 76.199585 
L 152.952756 77.055048 
L 154.606299 75.058967 
L 156.259843 76.769893 
L 157.913386 75.344121 
L 159.566929 76.769893 
L 161.220472 76.484739 
L 162.874016 74.203504 
L 164.527559 77.340202 
L 166.181102 79.336283 
L 167.834646 78.195665 
L 169.488189 77.340202 
L 171.141732 79.621437 
L 172.795276 78.765974 
L 174.448819 80.191746 
L 176.102362 81.902672 
L 177.755906 82.187826 
L 179.409449 80.4769 
L 181.062992 83.898753 
L 182.716535 84.754216 
L 184.370079 85.03937 
L 186.023622 84.754216 
L 187.677165 84.754216 
L 189.330709 84.754216 
L 190.984252 83.898753 
L 192.637795 84.754216 
L 194.291339 84.469061 
L 195.944882 83.898753 
L 197.598425 84.469061 
" clip-path="url(#pb7ffb60773)" style="fill: none; stroke: #ffa500; stroke-opacity: 0.8; stroke-linecap: square"/>
   </g>
   <g id="patch_3">
    <path d="M 0 85.03937 
L 0 -0 
" style="fill: none; stroke: #000000; stroke-linejoin: miter; stroke-linecap: square"/>
   </g>
   <g id="patch_4">
    <path d="M 198.425197 85.03937 
L 198.425197 -0 
" style="fill: none; stroke: #000000; stroke-linejoin: miter; stroke-linecap: square"/>
   </g>
   <g id="patch_5">
    <path d="M 0 85.03937 
L 198.425197 85.03937 
" style="fill: none; stroke: #000000; stroke-linejoin: miter; stroke-linecap: square"/>
   </g>
   <g id="patch_6">
    <path d="M 0 0 
L 198.425197 0 
" style="fill: none; stroke: #000000; stroke-linejoin: miter; stroke-linecap: square"/>
   </g>
   <g id="legend_1">
    <g id="line2d_54">
     <g>
      <use xlink:href="#me6c1865b7f" x="116.895978" y="8.871406" style="stroke: #000000"/>
     </g>
    </g>
    <g id="text_3">
     <text style="font: 7px 'Helvetica'; text-anchor: start" x="129.495978" y="11.321406" transform="rotate(-0, 129.495978, 11.321406)">ISO 8529-2</text>
    </g>
    <g id="line2d_55">
     <path d="M 109.895978 18.851875 
L 116.895978 18.851875 
L 123.895978 18.851875 
" style="fill: none; stroke: #ff0000; stroke-opacity: 0.8; stroke-linecap: square"/>
    </g>
    <g id="text_4">
     <text style="font: 7px 'Helvetica'; text-anchor: start" x="129.495978" y="21.301875" transform="rotate(-0, 129.495978, 21.301875)">neutron scatter TOF</text>
    </g>
    <g id="line2d_56">
     <path d="M 109.895978 28.832344 
L 116.895978 28.832344 
L 123.895978 28.832344 
" style="fill: none; stroke: #ffa500; stroke-opacity: 0.8; stroke-linecap: square"/>
    </g>
    <g id="text_5">
     <text style="font: 7px 'Helvetica'; text-anchor: start" x="129.495978" y="31.282344" transform="rotate(-0, 129.495978, 31.282344)">simulated</text>
    </g>
   </g>
  </g>
 </g>
 <defs>
  <clipPath id="pb7ffb60773">
   <rect x="0" y="0" width="198.425197" height="85.03937"/>
  </clipPath>
 </defs>
</svg>
